/* XPM */
static char *_4a3fd6bf38c4dfc91c008afe49659e1hXYItpN3f7KpGZov[] = {
/* columns rows colors chars-per-pixel */
"64 64 7 1 ",
"  c #17091A",
". c #292830",
"X c #33323C",
"o c #5D4037",
"O c #7D5450",
"+ c #945A50",
"@ c #C06A58",
/* pixels */
"    @@@@++++OOOOOOOOOOOOOOOOOOOOOOOOOOOOOOOOOOOOOOOO++++@@@@    ",
"    @@@@++++OOOOOOOOOOOOOOOOOOOOOOOOOOOOOOOOOOOOOOOO++++@@@@    ",
"    @@@@++++OOOOOOOOOOOOOOOOOOOOOOOOOOOOOOOOOOOOOOOO++++@@@@    ",
"    @@@@++++OOOOOOOOOOOOOOOOOOOOOOOOOOOOOOOOOOOOOOOO++++@@@@    ",
"    ++++OOOO@@@@................................@@@@OOOO++++    ",
"    ++++OOOO@@@@................................@@@@OOOO++++    ",
"    ++++OOOO@@@@................................@@@@OOOO++++    ",
"    ++++OOOO@@@@................................@@@@OOOO++++    ",
"    OOOOoooo++++@@@@....XXXXXXXXXXXXXXXX....@@@@++++OOOOOOOO    ",
"    OOOOoooo++++@@@@....XXXXXXXXXXXXXXXX....@@@@++++OOOOOOOO    ",
"    OOOOoooo++++@@@@....XXXXXXXXXXXXXXXX....@@@@++++OOOOOOOO    ",
"    OOOOoooo++++@@@@....XXXXXXXXXXXXXXXX....@@@@++++OOOOOOOO    ",
"    OOOO....oooo++++@@@@....XXXXXXXX....@@@@++++OOOO....OOOO    ",
"    OOOO....oooo++++@@@@....XXXXXXXX....@@@@++++OOOO....OOOO    ",
"    OOOO....oooo++++@@@@....XXXXXXXX....@@@@++++OOOO....OOOO    ",
"    OOOO....oooo++++@@@@....XXXXXXXX....@@@@++++OOOO....OOOO    ",
"    OOOO........oooo++++@@@@........@@@@++++OOOO........OOOO    ",
"    OOOO........oooo++++@@@@........@@@@++++OOOO........OOOO    ",
"    OOOO........oooo++++@@@@........@@@@++++OOOO........OOOO    ",
"    OOOO........oooo++++@@@@........@@@@++++OOOO........OOOO    ",
"    OOOO....XXXX....ooooOOOO++++@@@@++++OOOO....XXXX....OOOO    ",
"    OOOO....XXXX....ooooOOOO++++@@@@++++OOOO....XXXX....OOOO    ",
"    OOOO....XXXX....ooooOOOO++++@@@@++++OOOO....XXXX....OOOO    ",
"    OOOO....XXXX....ooooOOOO++++@@@@++++OOOO....XXXX....OOOO    ",
"    OOOO....XXXXXXXX....oooo@@@@++++OOOO....XXXXXXXX....OOOO    ",
"    OOOO....XXXXXXXX....oooo@@@@++++OOOO....XXXXXXXX....OOOO    ",
"    OOOO....XXXXXXXX....oooo@@@@++++OOOO....XXXXXXXX....OOOO    ",
"    OOOO....XXXXXXXX....oooo@@@@++++OOOO....XXXXXXXX....OOOO    ",
"    OOOO....XXXXXXXX....@@@@++++OOOO++++....XXXXXXXX....OOOO    ",
"    OOOO....XXXXXXXX....@@@@++++OOOO++++....XXXXXXXX....OOOO    ",
"    OOOO....XXXXXXXX....@@@@++++OOOO++++....XXXXXXXX....OOOO    ",
"    OOOO....XXXXXXXX....@@@@++++OOOO++++....XXXXXXXX....OOOO    ",
"    OOOO....XXXX....@@@@++++OOOOooooOOOO@@@@....XXXX....OOOO    ",
"    OOOO....XXXX....@@@@++++OOOOooooOOOO@@@@....XXXX....OOOO    ",
"    OOOO....XXXX....@@@@++++OOOOooooOOOO@@@@....XXXX....OOOO    ",
"    OOOO....XXXX....@@@@++++OOOOooooOOOO@@@@....XXXX....OOOO    ",
"    OOOO........@@@@++++OOOO........oooo++++@@@@........OOOO    ",
"    OOOO........@@@@++++OOOO........oooo++++@@@@........OOOO    ",
"    OOOO........@@@@++++OOOO........oooo++++@@@@........OOOO    ",
"    OOOO........@@@@++++OOOO........oooo++++@@@@........OOOO    ",
"    OOOO....@@@@++++OOOO....XXXXXXXX....oooo++++@@@@....OOOO    ",
"    OOOO....@@@@++++OOOO....XXXXXXXX....oooo++++@@@@....OOOO    ",
"    OOOO....@@@@++++OOOO....XXXXXXXX....oooo++++@@@@....OOOO    ",
"    OOOO....@@@@++++OOOO....XXXXXXXX....oooo++++@@@@....OOOO    ",
"    OOOO@@@@++++OOOO....XXXXXXXXXXXXXXXX....oooo++++@@@@OOOO    ",
"    OOOO@@@@++++OOOO....XXXXXXXXXXXXXXXX....oooo++++@@@@OOOO    ",
"    OOOO@@@@++++OOOO....XXXXXXXXXXXXXXXX....oooo++++@@@@OOOO    ",
"    OOOO@@@@++++OOOO....XXXXXXXXXXXXXXXX....oooo++++@@@@OOOO    ",
"    ++++OOOOOOOO................................ooooOOOO++++    ",
"    ++++OOOOOOOO................................ooooOOOO++++    ",
"    ++++OOOOOOOO................................ooooOOOO++++    ",
"    ++++OOOOOOOO................................ooooOOOO++++    ",
"    @@@@++++OOOOOOOOOOOOOOOOOOOOOOOOOOOOOOOOOOOOOOOO++++@@@@    ",
"    @@@@++++OOOOOOOOOOOOOOOOOOOOOOOOOOOOOOOOOOOOOOOO++++@@@@    ",
"    @@@@++++OOOOOOOOOOOOOOOOOOOOOOOOOOOOOOOOOOOOOOOO++++@@@@    ",
"    @@@@++++OOOOOOOOOOOOOOOOOOOOOOOOOOOOOOOOOOOOOOOO++++@@@@    ",
"................................................................",
"................................................................",
"................................................................",
"................................................................",
"....XXXXXXXXXXXXXXXXXXXXXXXXXXXXXXXXXXXXXXXXXXXXXXXXXXXXXXXX....",
"....XXXXXXXXXXXXXXXXXXXXXXXXXXXXXXXXXXXXXXXXXXXXXXXXXXXXXXXX....",
"....XXXXXXXXXXXXXXXXXXXXXXXXXXXXXXXXXXXXXXXXXXXXXXXXXXXXXXXX....",
"....XXXXXXXXXXXXXXXXXXXXXXXXXXXXXXXXXXXXXXXXXXXXXXXXXXXXXXXX...."
};
