/* XPM */
static char *_a03cc592a12400ccf63e312d1825e9bmUcewwmiwh67EaSU[] = {
/* columns rows colors chars-per-pixel */
"64 64 4 1 ",
"  c #292830",
". c #693227",
"X c #6A6C6D",
"o c #8F8D85",
/* pixels */
"    ....    ........XXXXXXXX........XXXXXXXX........    ....    ",
"    ....    ........XXXXXXXX........XXXXXXXX........    ....    ",
"    ....    ........XXXXXXXX........XXXXXXXX........    ....    ",
"    ....    ........XXXXXXXX........XXXXXXXX........    ....    ",
"    ........XXXXXXXXooooooooXXXXXXXXooooooooXXXXXXXX........    ",
"    ........XXXXXXXXooooooooXXXXXXXXooooooooXXXXXXXX........    ",
"    ........XXXXXXXXooooooooXXXXXXXXooooooooXXXXXXXX........    ",
"    ........XXXXXXXXooooooooXXXXXXXXooooooooXXXXXXXX........    ",
"            ........XXXXXXXX........XXXXXXXX........            ",
"            ........XXXXXXXX........XXXXXXXX........            ",
"            ........XXXXXXXX........XXXXXXXX........            ",
"            ........XXXXXXXX........XXXXXXXX........            ",
"    ....    XXXXXXXXooooooooXXXXXXXXooooooooXXXXXXXX    ....    ",
"    ....    XXXXXXXXooooooooXXXXXXXXooooooooXXXXXXXX    ....    ",
"    ....    XXXXXXXXooooooooXXXXXXXXooooooooXXXXXXXX    ....    ",
"    ....    XXXXXXXXooooooooXXXXXXXXooooooooXXXXXXXX    ....    ",
"    ....    XXXXXXXXooooooooXXXXXXXXooooooooXXXXXXXX    ....    ",
"    ....    XXXXXXXXooooooooXXXXXXXXooooooooXXXXXXXX    ....    ",
"    ....    XXXXXXXXooooooooXXXXXXXXooooooooXXXXXXXX    ....    ",
"    ....    XXXXXXXXooooooooXXXXXXXXooooooooXXXXXXXX    ....    ",
"    ....    ........XXXXXXXX........XXXXXXXX........    ....    ",
"    ....    ........XXXXXXXX........XXXXXXXX........    ....    ",
"    ....    ........XXXXXXXX........XXXXXXXX........    ....    ",
"    ....    ........XXXXXXXX........XXXXXXXX........    ....    ",
"    ....    XXXXXXXXoooo                ooooXXXXXXXX    ....    ",
"    ....    XXXXXXXXoooo                ooooXXXXXXXX    ....    ",
"    ....    XXXXXXXXoooo                ooooXXXXXXXX    ....    ",
"    ....    XXXXXXXXoooo                ooooXXXXXXXX    ....    ",
"    ....    XXXXXXXXoooo    oooooooo    ooooXXXXXXXX    ....    ",
"    ....    XXXXXXXXoooo    oooooooo    ooooXXXXXXXX    ....    ",
"    ....    XXXXXXXXoooo    oooooooo    ooooXXXXXXXX    ....    ",
"    ....    XXXXXXXXoooo    oooooooo    ooooXXXXXXXX    ....    ",
"    ....    XXXXXXXXoooo    oooooooo    ooooXXXXXXXX    ....    ",
"    ....    XXXXXXXXoooo    oooooooo    ooooXXXXXXXX    ....    ",
"    ....    XXXXXXXXoooo    oooooooo    ooooXXXXXXXX    ....    ",
"    ....    XXXXXXXXoooo    oooooooo    ooooXXXXXXXX    ....    ",
"    ....    XXXXXXXXoooo                ooooXXXXXXXX    ....    ",
"    ....    XXXXXXXXoooo                ooooXXXXXXXX    ....    ",
"    ....    XXXXXXXXoooo                ooooXXXXXXXX    ....    ",
"    ....    XXXXXXXXoooo                ooooXXXXXXXX    ....    ",
"    ....    ........XXXXXXXX........XXXXXXXX........    ....    ",
"    ....    ........XXXXXXXX........XXXXXXXX........    ....    ",
"    ....    ........XXXXXXXX........XXXXXXXX........    ....    ",
"    ....    ........XXXXXXXX........XXXXXXXX........    ....    ",
"    ....    XXXXXXXXooooooooXXXXXXXXooooooooXXXXXXXX    ....    ",
"    ....    XXXXXXXXooooooooXXXXXXXXooooooooXXXXXXXX    ....    ",
"    ....    XXXXXXXXooooooooXXXXXXXXooooooooXXXXXXXX    ....    ",
"    ....    XXXXXXXXooooooooXXXXXXXXooooooooXXXXXXXX    ....    ",
"    ....    XXXXXXXXooooooooXXXXXXXXooooooooXXXXXXXX    ....    ",
"    ....    XXXXXXXXooooooooXXXXXXXXooooooooXXXXXXXX    ....    ",
"    ....    XXXXXXXXooooooooXXXXXXXXooooooooXXXXXXXX    ....    ",
"    ....    XXXXXXXXooooooooXXXXXXXXooooooooXXXXXXXX    ....    ",
"            ........XXXXXXXX........XXXXXXXX........            ",
"            ........XXXXXXXX........XXXXXXXX........            ",
"            ........XXXXXXXX........XXXXXXXX........            ",
"            ........XXXXXXXX........XXXXXXXX........            ",
"    ........XXXXXXXXooooooooXXXXXXXXooooooooXXXXXXXX........    ",
"    ........XXXXXXXXooooooooXXXXXXXXooooooooXXXXXXXX........    ",
"    ........XXXXXXXXooooooooXXXXXXXXooooooooXXXXXXXX........    ",
"    ........XXXXXXXXooooooooXXXXXXXXooooooooXXXXXXXX........    ",
"    ....    ........XXXXXXXX........XXXXXXXX........    ....    ",
"    ....    ........XXXXXXXX........XXXXXXXX........    ....    ",
"    ....    ........XXXXXXXX........XXXXXXXX........    ....    ",
"    ....    ........XXXXXXXX........XXXXXXXX........    ....    "
};
