/* XPM */
static char *result[] = {
/* columns rows colors chars-per-pixel */
"64 64 7 1 ",
"  c #292830",
". c #693227",
"X c #3C5E40",
"o c #637B54",
"O c #6A6C6D",
"+ c #81933D",
"@ c #8F8D85",
/* pixels */
"    ....    ........OOOOOOOO........OOOOOOOO........    ....    ",
"    ....    ........OOOOOOOO........OOOOOOOO........    ....    ",
"    ....    ........OOOOOOOO........OOOOOOOO........    ....    ",
"    ....    ........OOOOOOOO........OOOOOOOO........    ....    ",
"    ........OOOOOOOO@@@@@@@@OOOOOOOO@@@@@@@@OOOOOOOO........    ",
"    ........OOOOOOOO@@@@@@@@OOOOOOOO@@@@@@@@OOOOOOOO........    ",
"    ........OOOOOOOO@@@@@@@@OOOOOOOO@@@@@@@@OOOOOOOO........    ",
"    ........OOOOOOOO@@@@@@@@OOOOOOOO@@@@@@@@OOOOOOOO........    ",
"            ........OOOOOOOO........OOOOOOOO........            ",
"            ........OOOOOOOO........OOOOOOOO........            ",
"            ........OOOOOOOO........OOOOOOOO........            ",
"            ........OOOOOOOO........OOOOOOOO........            ",
"    ....    OOOOOOOO@@@@@@@@OOOOOOOO@@@@@@@@OOOOOOOO    ....    ",
"    ....    OOOOOOOO@@@@@@@@OOOOOOOO@@@@@@@@OOOOOOOO    ....    ",
"    ....    OOOOOOOO@@@@@@@@OOOOOOOO@@@@@@@@OOOOOOOO    ....    ",
"    ....    OOOOOOOO@@@@@@@@OOOOOOOO@@@@@@@@OOOOOOOO    ....    ",
"    ....    OOOOOOOO@@@@@@@@OOOOOOOO@@@@@@@@OOOOOOOO    ....    ",
"    ....    OOOOOOOO@@@@@@@@OOOOOOOO@@@@@@@@OOOOOOOO    ....    ",
"    ....    OOOOOOOO@@@@@@@@OOOOOOOO@@@@@@@@OOOOOOOO    ....    ",
"    ....    OOOOOOOO@@@@@@@@OOOOOOOO@@@@@@@@OOOOOOOO    ....    ",
"    ....    ........OOOOOOOO........OOOOOOOO........    ....    ",
"    ....    ........OOOOOOOO........OOOOOOOO........    ....    ",
"    ....    ........OOOOOOOO........OOOOOOOO........    ....    ",
"    ....    ........OOOOOOOO........OOOOOOOO........    ....    ",
"    ....    OOOOOOOO@@@@                @@@@OOOOOOOO    ....    ",
"    ....    OOOOOOOO@@@@                @@@@OOOOOOOO    ....    ",
"    ....    OOOOOOOO@@@@                @@@@OOOOOOOO    ....    ",
"    ....    OOOOOOOO@@@@                @@@@OOOOOOOO    ....    ",
"    ....    OOOOOOOO@@@@    ++++oooo    @@@@OOOOOOOO    ....    ",
"    ....    OOOOOOOO@@@@    ++++oooo    @@@@OOOOOOOO    ....    ",
"    ....    OOOOOOOO@@@@    ++++oooo    @@@@OOOOOOOO    ....    ",
"    ....    OOOOOOOO@@@@    ++++oooo    @@@@OOOOOOOO    ....    ",
"    ....    OOOOOOOO@@@@    ooooXXXX    @@@@OOOOOOOO    ....    ",
"    ....    OOOOOOOO@@@@    ooooXXXX    @@@@OOOOOOOO    ....    ",
"    ....    OOOOOOOO@@@@    ooooXXXX    @@@@OOOOOOOO    ....    ",
"    ....    OOOOOOOO@@@@    ooooXXXX    @@@@OOOOOOOO    ....    ",
"    ....    OOOOOOOO@@@@                @@@@OOOOOOOO    ....    ",
"    ....    OOOOOOOO@@@@                @@@@OOOOOOOO    ....    ",
"    ....    OOOOOOOO@@@@                @@@@OOOOOOOO    ....    ",
"    ....    OOOOOOOO@@@@                @@@@OOOOOOOO    ....    ",
"    ....    ........OOOOOOOO........OOOOOOOO........    ....    ",
"    ....    ........OOOOOOOO........OOOOOOOO........    ....    ",
"    ....    ........OOOOOOOO........OOOOOOOO........    ....    ",
"    ....    ........OOOOOOOO........OOOOOOOO........    ....    ",
"    ....    OOOOOOOO@@@@@@@@OOOOOOOO@@@@@@@@OOOOOOOO    ....    ",
"    ....    OOOOOOOO@@@@@@@@OOOOOOOO@@@@@@@@OOOOOOOO    ....    ",
"    ....    OOOOOOOO@@@@@@@@OOOOOOOO@@@@@@@@OOOOOOOO    ....    ",
"    ....    OOOOOOOO@@@@@@@@OOOOOOOO@@@@@@@@OOOOOOOO    ....    ",
"    ....    OOOOOOOO@@@@@@@@OOOOOOOO@@@@@@@@OOOOOOOO    ....    ",
"    ....    OOOOOOOO@@@@@@@@OOOOOOOO@@@@@@@@OOOOOOOO    ....    ",
"    ....    OOOOOOOO@@@@@@@@OOOOOOOO@@@@@@@@OOOOOOOO    ....    ",
"    ....    OOOOOOOO@@@@@@@@OOOOOOOO@@@@@@@@OOOOOOOO    ....    ",
"            ........OOOOOOOO........OOOOOOOO........            ",
"            ........OOOOOOOO........OOOOOOOO........            ",
"            ........OOOOOOOO........OOOOOOOO........            ",
"            ........OOOOOOOO........OOOOOOOO........            ",
"    ........OOOOOOOO@@@@@@@@OOOOOOOO@@@@@@@@OOOOOOOO........    ",
"    ........OOOOOOOO@@@@@@@@OOOOOOOO@@@@@@@@OOOOOOOO........    ",
"    ........OOOOOOOO@@@@@@@@OOOOOOOO@@@@@@@@OOOOOOOO........    ",
"    ........OOOOOOOO@@@@@@@@OOOOOOOO@@@@@@@@OOOOOOOO........    ",
"    ....    ........OOOOOOOO........OOOOOOOO........    ....    ",
"    ....    ........OOOOOOOO........OOOOOOOO........    ....    ",
"    ....    ........OOOOOOOO........OOOOOOOO........    ....    ",
"    ....    ........OOOOOOOO........OOOOOOOO........    ....    "
};
