/* XPM */
static char *result[] = {
/* columns rows colors chars-per-pixel */
"64 64 6 1 ",
"  c #292830",
". c #33323C",
"X c #464553",
"o c #48575F",
"O c #53626B",
"+ c #C5DBD4",
/* pixels */
"                                                                ",
"                                                                ",
"                                                                ",
"                                                                ",
"    ....                ................                ....    ",
"    ....                ................                ....    ",
"    ....                ................                ....    ",
"    ....                ................                ....    ",
"                ................................                ",
"                ................................                ",
"                ................................                ",
"                ................................                ",
"            ........................................            ",
"            ........................................            ",
"            ........................................            ",
"            ........................................            ",
"    ................XXXXXXXXXXXXXXXXXXXXXXXX................    ",
"    ................XXXXXXXXXXXXXXXXXXXXXXXX................    ",
"    ................XXXXXXXXXXXXXXXXXXXXXXXX................    ",
"    ................XXXXXXXXXXXXXXXXXXXXXXXX................    ",
"    ........XXXXXXXXXXXXXXXXooooooooXXXXXXXXXXXXXXXX........    ",
"    ........XXXXXXXXXXXXXXXXooooooooXXXXXXXXXXXXXXXX........    ",
"    ........XXXXXXXXXXXXXXXXooooooooXXXXXXXXXXXXXXXX........    ",
"    ........XXXXXXXXXXXXXXXXooooooooXXXXXXXXXXXXXXXX........    ",
"    ....XXXXXXXXXXXXooooOOOOOOOOOOOOOOOOooooXXXXXXXXXXXX....    ",
"    ....XXXXXXXXXXXXooooOOOOOOOOOOOOOOOOooooXXXXXXXXXXXX....    ",
"    ....XXXXXXXXXXXXooooOOOOOOOOOOOOOOOOooooXXXXXXXXXXXX....    ",
"    ....XXXXXXXXXXXXooooOOOOOOOOOOOOOOOOooooXXXXXXXXXXXX....    ",
"    ....XXXXooooOOOOOOOO++++++++++++++++OOOOOOOOooooXXXX....    ",
"    ....XXXXooooOOOOOOOO++++++++++++++++OOOOOOOOooooXXXX....    ",
"    ....XXXXooooOOOOOOOO++++++++++++++++OOOOOOOOooooXXXX....    ",
"    ....XXXXooooOOOOOOOO++++++++++++++++OOOOOOOOooooXXXX....    ",
"    ....XXXXooooOOOOOOOO++++++++++++++++OOOOOOOOooooXXXX....    ",
"    ....XXXXooooOOOOOOOO++++++++++++++++OOOOOOOOooooXXXX....    ",
"    ....XXXXooooOOOOOOOO++++++++++++++++OOOOOOOOooooXXXX....    ",
"    ....XXXXooooOOOOOOOO++++++++++++++++OOOOOOOOooooXXXX....    ",
"    ....XXXXXXXXXXXXooooOOOOOOOOOOOOOOOOooooXXXXXXXXXXXX....    ",
"    ....XXXXXXXXXXXXooooOOOOOOOOOOOOOOOOooooXXXXXXXXXXXX....    ",
"    ....XXXXXXXXXXXXooooOOOOOOOOOOOOOOOOooooXXXXXXXXXXXX....    ",
"    ....XXXXXXXXXXXXooooOOOOOOOOOOOOOOOOooooXXXXXXXXXXXX....    ",
"    ........XXXXXXXXXXXXXXXXooooooooXXXXXXXXXXXXXXXX........    ",
"    ........XXXXXXXXXXXXXXXXooooooooXXXXXXXXXXXXXXXX........    ",
"    ........XXXXXXXXXXXXXXXXooooooooXXXXXXXXXXXXXXXX........    ",
"    ........XXXXXXXXXXXXXXXXooooooooXXXXXXXXXXXXXXXX........    ",
"    ................XXXXXXXXXXXXXXXXXXXXXXXX................    ",
"    ................XXXXXXXXXXXXXXXXXXXXXXXX................    ",
"    ................XXXXXXXXXXXXXXXXXXXXXXXX................    ",
"    ................XXXXXXXXXXXXXXXXXXXXXXXX................    ",
"            ........................................            ",
"            ........................................            ",
"            ........................................            ",
"            ........................................            ",
"                ................................                ",
"                ................................                ",
"                ................................                ",
"                ................................                ",
"    ....                ................                ....    ",
"    ....                ................                ....    ",
"    ....                ................                ....    ",
"    ....                ................                ....    ",
"                                                                ",
"                                                                ",
"                                                                ",
"                                                                "
};
