/* XPM */
static char *result[] = {
/* columns rows colors chars-per-pixel */
"64 64 7 1 ",
"  c #292830",
". c #62311D",
"X c #693227",
"o c #6A6C6D",
"O c #863636",
"+ c #8B686F",
"@ c #8F8D85",
/* pixels */
"    XXXX    XXXXXXXXooooooooXXXXXXXXooooooooXXXXXXXX    XXXX    ",
"    XXXX    XXXXXXXXooooooooXXXXXXXXooooooooXXXXXXXX    XXXX    ",
"    XXXX    XXXXXXXXooooooooXXXXXXXXooooooooXXXXXXXX    XXXX    ",
"    XXXX    XXXXXXXXooooooooXXXXXXXXooooooooXXXXXXXX    XXXX    ",
"    XXXXXXXXoooooooo@@@@@@@@oooooooo@@@@@@@@ooooooooXXXXXXXX    ",
"    XXXXXXXXoooooooo@@@@@@@@oooooooo@@@@@@@@ooooooooXXXXXXXX    ",
"    XXXXXXXXoooooooo@@@@@@@@oooooooo@@@@@@@@ooooooooXXXXXXXX    ",
"    XXXXXXXXoooooooo@@@@@@@@oooooooo@@@@@@@@ooooooooXXXXXXXX    ",
"            XXXXXXXXooooooooXXXXXXXXooooooooXXXXXXXX            ",
"            XXXXXXXXooooooooXXXXXXXXooooooooXXXXXXXX            ",
"            XXXXXXXXooooooooXXXXXXXXooooooooXXXXXXXX            ",
"            XXXXXXXXooooooooXXXXXXXXooooooooXXXXXXXX            ",
"    XXXX    oooooooo@@@@@@@@oooooooo@@@@@@@@oooooooo    XXXX    ",
"    XXXX    oooooooo@@@@@@@@oooooooo@@@@@@@@oooooooo    XXXX    ",
"    XXXX    oooooooo@@@@@@@@oooooooo@@@@@@@@oooooooo    XXXX    ",
"    XXXX    oooooooo@@@@@@@@oooooooo@@@@@@@@oooooooo    XXXX    ",
"    XXXX    oooooooo@@@@@@@@oooooooo@@@@@@@@oooooooo    XXXX    ",
"    XXXX    oooooooo@@@@@@@@oooooooo@@@@@@@@oooooooo    XXXX    ",
"    XXXX    oooooooo@@@@@@@@oooooooo@@@@@@@@oooooooo    XXXX    ",
"    XXXX    oooooooo@@@@@@@@oooooooo@@@@@@@@oooooooo    XXXX    ",
"    XXXX    XXXXXXXXooooooooXXXXXXXXooooooooXXXXXXXX    XXXX    ",
"    XXXX    XXXXXXXXooooooooXXXXXXXXooooooooXXXXXXXX    XXXX    ",
"    XXXX    XXXXXXXXooooooooXXXXXXXXooooooooXXXXXXXX    XXXX    ",
"    XXXX    XXXXXXXXooooooooXXXXXXXXooooooooXXXXXXXX    XXXX    ",
"    XXXX    oooooooo@@@@                @@@@oooooooo    XXXX    ",
"    XXXX    oooooooo@@@@                @@@@oooooooo    XXXX    ",
"    XXXX    oooooooo@@@@                @@@@oooooooo    XXXX    ",
"    XXXX    oooooooo@@@@                @@@@oooooooo    XXXX    ",
"    XXXX    oooooooo@@@@    ++++OOOO    @@@@oooooooo    XXXX    ",
"    XXXX    oooooooo@@@@    ++++OOOO    @@@@oooooooo    XXXX    ",
"    XXXX    oooooooo@@@@    ++++OOOO    @@@@oooooooo    XXXX    ",
"    XXXX    oooooooo@@@@    ++++OOOO    @@@@oooooooo    XXXX    ",
"    XXXX    oooooooo@@@@    OOOO....    @@@@oooooooo    XXXX    ",
"    XXXX    oooooooo@@@@    OOOO....    @@@@oooooooo    XXXX    ",
"    XXXX    oooooooo@@@@    OOOO....    @@@@oooooooo    XXXX    ",
"    XXXX    oooooooo@@@@    OOOO....    @@@@oooooooo    XXXX    ",
"    XXXX    oooooooo@@@@                @@@@oooooooo    XXXX    ",
"    XXXX    oooooooo@@@@                @@@@oooooooo    XXXX    ",
"    XXXX    oooooooo@@@@                @@@@oooooooo    XXXX    ",
"    XXXX    oooooooo@@@@                @@@@oooooooo    XXXX    ",
"    XXXX    XXXXXXXXooooooooXXXXXXXXooooooooXXXXXXXX    XXXX    ",
"    XXXX    XXXXXXXXooooooooXXXXXXXXooooooooXXXXXXXX    XXXX    ",
"    XXXX    XXXXXXXXooooooooXXXXXXXXooooooooXXXXXXXX    XXXX    ",
"    XXXX    XXXXXXXXooooooooXXXXXXXXooooooooXXXXXXXX    XXXX    ",
"    XXXX    oooooooo@@@@@@@@oooooooo@@@@@@@@oooooooo    XXXX    ",
"    XXXX    oooooooo@@@@@@@@oooooooo@@@@@@@@oooooooo    XXXX    ",
"    XXXX    oooooooo@@@@@@@@oooooooo@@@@@@@@oooooooo    XXXX    ",
"    XXXX    oooooooo@@@@@@@@oooooooo@@@@@@@@oooooooo    XXXX    ",
"    XXXX    oooooooo@@@@@@@@oooooooo@@@@@@@@oooooooo    XXXX    ",
"    XXXX    oooooooo@@@@@@@@oooooooo@@@@@@@@oooooooo    XXXX    ",
"    XXXX    oooooooo@@@@@@@@oooooooo@@@@@@@@oooooooo    XXXX    ",
"    XXXX    oooooooo@@@@@@@@oooooooo@@@@@@@@oooooooo    XXXX    ",
"            XXXXXXXXooooooooXXXXXXXXooooooooXXXXXXXX            ",
"            XXXXXXXXooooooooXXXXXXXXooooooooXXXXXXXX            ",
"            XXXXXXXXooooooooXXXXXXXXooooooooXXXXXXXX            ",
"            XXXXXXXXooooooooXXXXXXXXooooooooXXXXXXXX            ",
"    XXXXXXXXoooooooo@@@@@@@@oooooooo@@@@@@@@ooooooooXXXXXXXX    ",
"    XXXXXXXXoooooooo@@@@@@@@oooooooo@@@@@@@@ooooooooXXXXXXXX    ",
"    XXXXXXXXoooooooo@@@@@@@@oooooooo@@@@@@@@ooooooooXXXXXXXX    ",
"    XXXXXXXXoooooooo@@@@@@@@oooooooo@@@@@@@@ooooooooXXXXXXXX    ",
"    XXXX    XXXXXXXXooooooooXXXXXXXXooooooooXXXXXXXX    XXXX    ",
"    XXXX    XXXXXXXXooooooooXXXXXXXXooooooooXXXXXXXX    XXXX    ",
"    XXXX    XXXXXXXXooooooooXXXXXXXXooooooooXXXXXXXX    XXXX    ",
"    XXXX    XXXXXXXXooooooooXXXXXXXXooooooooXXXXXXXX    XXXX    "
};
