/* XPM */
static char *_b1beb6a148d4a81d6154f0205046263QKEz9UYReW68ol4v[] = {
/* columns rows colors chars-per-pixel */
"64 64 6 1 ",
"  c #3B3F34",
". c #4A4E44",
"X c #5B5B50",
"o c #6A6C6D",
"O c #838078",
"+ c #9C9E92",
/* pixels */
"XXXXXXXXXXXX....ooooXXXXXXXXXXXXXXXXXXXXXXXX....ooooXXXXXXXXXXXX",
"XXXXXXXXXXXX....ooooXXXXXXXXXXXXXXXXXXXXXXXX....ooooXXXXXXXXXXXX",
"XXXXXXXXXXXX....ooooXXXXXXXXXXXXXXXXXXXXXXXX....ooooXXXXXXXXXXXX",
"XXXXXXXXXXXX....ooooXXXXXXXXXXXXXXXXXXXXXXXX....ooooXXXXXXXXXXXX",
"............    ooooXXXX....................    ooooXXXX........",
"............    ooooXXXX....................    ooooXXXX........",
"............    ooooXXXX....................    ooooXXXX........",
"............    ooooXXXX....................    ooooXXXX........",
"                OOOO....                        ++++....        ",
"                OOOO....                        ++++....        ",
"                OOOO....                        ++++....        ",
"                OOOO....                        ++++....        ",
"ooooOOOOOOOOOOOOOOOOooooooooooooooooOOOO++++++++++++oooooooooooo",
"ooooOOOOOOOOOOOOOOOOooooooooooooooooOOOO++++++++++++oooooooooooo",
"ooooOOOOOOOOOOOOOOOOooooooooooooooooOOOO++++++++++++oooooooooooo",
"ooooOOOOOOOOOOOOOOOOooooooooooooooooOOOO++++++++++++oooooooooooo",
"OOOOXXXXXXXXXXXXXXXXXXXXXXXX....OOOOXXXXXXXXXXXXXXXXXXXXXXXX....",
"OOOOXXXXXXXXXXXXXXXXXXXXXXXX....OOOOXXXXXXXXXXXXXXXXXXXXXXXX....",
"OOOOXXXXXXXXXXXXXXXXXXXXXXXX....OOOOXXXXXXXXXXXXXXXXXXXXXXXX....",
"OOOOXXXXXXXXXXXXXXXXXXXXXXXX....OOOOXXXXXXXXXXXXXXXXXXXXXXXX....",
"++++XXXX....................    OOOOXXXX....................    ",
"++++XXXX....................    OOOOXXXX....................    ",
"++++XXXX....................    OOOOXXXX....................    ",
"++++XXXX....................    OOOOXXXX....................    ",
"oooo....                        OOOO....                        ",
"oooo....                        OOOO....                        ",
"oooo....                        OOOO....                        ",
"oooo....                        OOOO....                        ",
"oooo++++OOOOooooooooooooooooOOOO++++++++++++oooooooooooooooooooo",
"oooo++++OOOOooooooooooooooooOOOO++++++++++++oooooooooooooooooooo",
"oooo++++OOOOooooooooooooooooOOOO++++++++++++oooooooooooooooooooo",
"oooo++++OOOOooooooooooooooooOOOO++++++++++++oooooooooooooooooooo",
"XXXXXXXXXXXX....OOOOXXXXXXXXXXXXXXXXXXXXXXXX....ooooXXXXXXXXXXXX",
"XXXXXXXXXXXX....OOOOXXXXXXXXXXXXXXXXXXXXXXXX....ooooXXXXXXXXXXXX",
"XXXXXXXXXXXX....OOOOXXXXXXXXXXXXXXXXXXXXXXXX....ooooXXXXXXXXXXXX",
"XXXXXXXXXXXX....OOOOXXXXXXXXXXXXXXXXXXXXXXXX....ooooXXXXXXXXXXXX",
"............    OOOOXXXX....................    ooooXXXX........",
"............    OOOOXXXX....................    ooooXXXX........",
"............    OOOOXXXX....................    ooooXXXX........",
"............    OOOOXXXX....................    ooooXXXX........",
"                OOOO....                        OOOO....        ",
"                OOOO....                        OOOO....        ",
"                OOOO....                        OOOO....        ",
"                OOOO....                        OOOO....        ",
"++++oooo++++++++OOOOOOOOoooooooo++++++++oooooooo++++OOOO++++oooo",
"++++oooo++++++++OOOOOOOOoooooooo++++++++oooooooo++++OOOO++++oooo",
"++++oooo++++++++OOOOOOOOoooooooo++++++++oooooooo++++OOOO++++oooo",
"++++oooo++++++++OOOOOOOOoooooooo++++++++oooooooo++++OOOO++++oooo",
"OOOOXXXXXXXXXXXXXXXXXXXXXXXX....OOOOXXXXXXXXXXXXXXXXXXXXXXXX....",
"OOOOXXXXXXXXXXXXXXXXXXXXXXXX....OOOOXXXXXXXXXXXXXXXXXXXXXXXX....",
"OOOOXXXXXXXXXXXXXXXXXXXXXXXX....OOOOXXXXXXXXXXXXXXXXXXXXXXXX....",
"OOOOXXXXXXXXXXXXXXXXXXXXXXXX....OOOOXXXXXXXXXXXXXXXXXXXXXXXX....",
"ooooXXXX....................    OOOOXXXX....................    ",
"ooooXXXX....................    OOOOXXXX....................    ",
"ooooXXXX....................    OOOOXXXX....................    ",
"ooooXXXX....................    OOOOXXXX....................    ",
"++++....                        OOOO....                        ",
"++++....                        OOOO....                        ",
"++++....                        OOOO....                        ",
"++++....                        OOOO....                        ",
"oooo++++OOOOoooooooooooooooo++++++++oooooooo++++oooooooooooooooo",
"oooo++++OOOOoooooooooooooooo++++++++oooooooo++++oooooooooooooooo",
"oooo++++OOOOoooooooooooooooo++++++++oooooooo++++oooooooooooooooo",
"oooo++++OOOOoooooooooooooooo++++++++oooooooo++++oooooooooooooooo"
};
