/* XPM */
static char *_b4380f5b07049ddf9f9950d70eafce1BPXdA7vvQXLwB9Qk[] = {
/* columns rows colors chars-per-pixel */
"64 64 7 1 ",
"  c #292830",
". c #33323C",
"X c #693227",
"o c #464553",
"O c #48575F",
"+ c #8F3E3A",
"@ c #C06A58",
/* pixels */
"................    @@@@++++++++++++++++XXXX    oooo............",
"................    @@@@++++++++++++++++XXXX    oooo............",
"................    @@@@++++++++++++++++XXXX    oooo............",
"................    @@@@++++++++++++++++XXXX    oooo............",
"................    @@@@++++++++++++++++XXXX    oooo............",
"................    @@@@++++++++++++++++XXXX    oooo............",
"................    @@@@++++++++++++++++XXXX    oooo............",
"................    @@@@++++++++++++++++XXXX    oooo............",
"                    @@@@++++++++++++++++XXXX    oooo            ",
"                    @@@@++++++++++++++++XXXX    oooo            ",
"                    @@@@++++++++++++++++XXXX    oooo            ",
"                    @@@@++++++++++++++++XXXX    oooo            ",
"@@@@@@@@@@@@@@@@@@@@@@@@++++++++++++++++XXXX    oooo    @@@@@@@@",
"@@@@@@@@@@@@@@@@@@@@@@@@++++++++++++++++XXXX    oooo    @@@@@@@@",
"@@@@@@@@@@@@@@@@@@@@@@@@++++++++++++++++XXXX    oooo    @@@@@@@@",
"@@@@@@@@@@@@@@@@@@@@@@@@++++++++++++++++XXXX    oooo    @@@@@@@@",
"++++++++++++++++++++++++++++++++++++++++XXXX    oooo    @@@@++++",
"++++++++++++++++++++++++++++++++++++++++XXXX    oooo    @@@@++++",
"++++++++++++++++++++++++++++++++++++++++XXXX    oooo    @@@@++++",
"++++++++++++++++++++++++++++++++++++++++XXXX    oooo    @@@@++++",
"++++++++++++++++XXXXXXXXXXXXXXXXXXXXXXXXXXXX    oooo    @@@@++++",
"++++++++++++++++XXXXXXXXXXXXXXXXXXXXXXXXXXXX    oooo    @@@@++++",
"++++++++++++++++XXXXXXXXXXXXXXXXXXXXXXXXXXXX    oooo    @@@@++++",
"++++++++++++++++XXXXXXXXXXXXXXXXXXXXXXXXXXXX    oooo    @@@@++++",
"++++++++++++++++XXXX                                    @@@@++++",
"++++++++++++++++XXXX                                    @@@@++++",
"++++++++++++++++XXXX                                    @@@@++++",
"++++++++++++++++XXXX                                    @@@@++++",
"++++++++++++++++XXXX    ooooOOOOOOOOOOOOOOOOOOOOOOOO    @@@@++++",
"++++++++++++++++XXXX    ooooOOOOOOOOOOOOOOOOOOOOOOOO    @@@@++++",
"++++++++++++++++XXXX    ooooOOOOOOOOOOOOOOOOOOOOOOOO    @@@@++++",
"++++++++++++++++XXXX    ooooOOOOOOOOOOOOOOOOOOOOOOOO    @@@@++++",
"++++++++++++++++XXXX    ....oooooooooooooooooooo....    @@@@++++",
"++++++++++++++++XXXX    ....oooooooooooooooooooo....    @@@@++++",
"++++++++++++++++XXXX    ....oooooooooooooooooooo....    @@@@++++",
"++++++++++++++++XXXX    ....oooooooooooooooooooo....    @@@@++++",
"XXXXXXXXXXXXXXXXXXXX    ................oooooooo....    ++++XXXX",
"XXXXXXXXXXXXXXXXXXXX    ................oooooooo....    ++++XXXX",
"XXXXXXXXXXXXXXXXXXXX    ................oooooooo....    ++++XXXX",
"XXXXXXXXXXXXXXXXXXXX    ................oooooooo....    ++++XXXX",
"                                    ....oooooooo....            ",
"                                    ....oooooooo....            ",
"                                    ....oooooooo....            ",
"                                    ....oooooooo....            ",
"oooo    OOOOOOOOOOOOOOOOOOOOoooo    ....ooooooooooooOOOO    oooo",
"oooo    OOOOOOOOOOOOOOOOOOOOoooo    ....ooooooooooooOOOO    oooo",
"oooo    OOOOOOOOOOOOOOOOOOOOoooo    ....ooooooooooooOOOO    oooo",
"oooo    OOOOOOOOOOOOOOOOOOOOoooo    ....ooooooooooooOOOO    oooo",
"....    OOOOoooooooooooooooo....    ....ooooooooooooOOOO    oooo",
"....    OOOOoooooooooooooooo....    ....ooooooooooooOOOO    oooo",
"....    OOOOoooooooooooooooo....    ....ooooooooooooOOOO    oooo",
"....    OOOOoooooooooooooooo....    ....ooooooooooooOOOO    oooo",
"....    oooo....                                ....oooo    oooo",
"....    oooo....                                ....oooo    oooo",
"....    oooo....                                ....oooo    oooo",
"....    oooo....                                ....oooo    oooo",
"....                @@@@@@@@@@@@@@@@@@@@++++                oooo",
"....                @@@@@@@@@@@@@@@@@@@@++++                oooo",
"....                @@@@@@@@@@@@@@@@@@@@++++                oooo",
"....                @@@@@@@@@@@@@@@@@@@@++++                oooo",
"................    @@@@++++++++++++++++XXXX    oooooooooooooooo",
"................    @@@@++++++++++++++++XXXX    oooooooooooooooo",
"................    @@@@++++++++++++++++XXXX    oooooooooooooooo",
"................    @@@@++++++++++++++++XXXX    oooooooooooooooo"
};
