/* XPM */
static char *_c763aaf9d4a47d3e84fb34e632f72afZDKMIWUKSLHdNSSH[] = {
/* columns rows colors chars-per-pixel */
"64 64 6 1 ",
"  c #693227",
". c #73322F",
"X c #6A6C6D",
"o c #8F3E3A",
"O c #838078",
"+ c #9C9E92",
/* pixels */
"oooooooooooo....XXXXoooooooooooooooooooooooo....XXXXoooooooooooo",
"oooooooooooo....XXXXoooooooooooooooooooooooo....XXXXoooooooooooo",
"oooooooooooo....XXXXoooooooooooooooooooooooo....XXXXoooooooooooo",
"oooooooooooo....XXXXoooooooooooooooooooooooo....XXXXoooooooooooo",
"............    XXXXoooo....................    XXXXoooo........",
"............    XXXXoooo....................    XXXXoooo........",
"............    XXXXoooo....................    XXXXoooo........",
"............    XXXXoooo....................    XXXXoooo........",
"                OOOO....                        ++++....        ",
"                OOOO....                        ++++....        ",
"                OOOO....                        ++++....        ",
"                OOOO....                        ++++....        ",
"XXXXOOOOOOOOOOOOOOOOXXXXXXXXXXXXXXXXOOOO++++++++++++XXXXXXXXXXXX",
"XXXXOOOOOOOOOOOOOOOOXXXXXXXXXXXXXXXXOOOO++++++++++++XXXXXXXXXXXX",
"XXXXOOOOOOOOOOOOOOOOXXXXXXXXXXXXXXXXOOOO++++++++++++XXXXXXXXXXXX",
"XXXXOOOOOOOOOOOOOOOOXXXXXXXXXXXXXXXXOOOO++++++++++++XXXXXXXXXXXX",
"OOOOoooooooooooooooooooooooo....OOOOoooooooooooooooooooooooo....",
"OOOOoooooooooooooooooooooooo....OOOOoooooooooooooooooooooooo....",
"OOOOoooooooooooooooooooooooo....OOOOoooooooooooooooooooooooo....",
"OOOOoooooooooooooooooooooooo....OOOOoooooooooooooooooooooooo....",
"++++oooo....................    OOOOoooo....................    ",
"++++oooo....................    OOOOoooo....................    ",
"++++oooo....................    OOOOoooo....................    ",
"++++oooo....................    OOOOoooo....................    ",
"XXXX....                        OOOO....                        ",
"XXXX....                        OOOO....                        ",
"XXXX....                        OOOO....                        ",
"XXXX....                        OOOO....                        ",
"XXXX++++OOOOXXXXXXXXXXXXXXXXOOOO++++++++++++XXXXXXXXXXXXXXXXXXXX",
"XXXX++++OOOOXXXXXXXXXXXXXXXXOOOO++++++++++++XXXXXXXXXXXXXXXXXXXX",
"XXXX++++OOOOXXXXXXXXXXXXXXXXOOOO++++++++++++XXXXXXXXXXXXXXXXXXXX",
"XXXX++++OOOOXXXXXXXXXXXXXXXXOOOO++++++++++++XXXXXXXXXXXXXXXXXXXX",
"oooooooooooo....OOOOoooooooooooooooooooooooo....XXXXoooooooooooo",
"oooooooooooo....OOOOoooooooooooooooooooooooo....XXXXoooooooooooo",
"oooooooooooo....OOOOoooooooooooooooooooooooo....XXXXoooooooooooo",
"oooooooooooo....OOOOoooooooooooooooooooooooo....XXXXoooooooooooo",
"............    OOOOoooo....................    XXXXoooo........",
"............    OOOOoooo....................    XXXXoooo........",
"............    OOOOoooo....................    XXXXoooo........",
"............    OOOOoooo....................    XXXXoooo........",
"                OOOO....                        OOOO....        ",
"                OOOO....                        OOOO....        ",
"                OOOO....                        OOOO....        ",
"                OOOO....                        OOOO....        ",
"++++XXXX++++++++OOOOOOOOXXXXXXXX++++++++XXXXXXXX++++OOOO++++XXXX",
"++++XXXX++++++++OOOOOOOOXXXXXXXX++++++++XXXXXXXX++++OOOO++++XXXX",
"++++XXXX++++++++OOOOOOOOXXXXXXXX++++++++XXXXXXXX++++OOOO++++XXXX",
"++++XXXX++++++++OOOOOOOOXXXXXXXX++++++++XXXXXXXX++++OOOO++++XXXX",
"OOOOoooooooooooooooooooooooo....OOOOoooooooooooooooooooooooo....",
"OOOOoooooooooooooooooooooooo....OOOOoooooooooooooooooooooooo....",
"OOOOoooooooooooooooooooooooo....OOOOoooooooooooooooooooooooo....",
"OOOOoooooooooooooooooooooooo....OOOOoooooooooooooooooooooooo....",
"XXXXoooo....................    OOOOoooo....................    ",
"XXXXoooo....................    OOOOoooo....................    ",
"XXXXoooo....................    OOOOoooo....................    ",
"XXXXoooo....................    OOOOoooo....................    ",
"++++....                        OOOO....                        ",
"++++....                        OOOO....                        ",
"++++....                        OOOO....                        ",
"++++....                        OOOO....                        ",
"XXXX++++OOOOXXXXXXXXXXXXXXXX++++++++XXXXXXXX++++XXXXXXXXXXXXXXXX",
"XXXX++++OOOOXXXXXXXXXXXXXXXX++++++++XXXXXXXX++++XXXXXXXXXXXXXXXX",
"XXXX++++OOOOXXXXXXXXXXXXXXXX++++++++XXXXXXXX++++XXXXXXXXXXXXXXXX",
"XXXX++++OOOOXXXXXXXXXXXXXXXX++++++++XXXXXXXX++++XXXXXXXXXXXXXXXX"
};
